<?xml version="1.0" encoding="UTF-8"?>
<!-- Created with Inkscape (http://www.inkscape.org/) -->
<svg id="svg8" width="400" height="170" version="1.1" viewBox="0 0 400 170" xmlns="http://www.w3.org/2000/svg" xmlns:cc="http://creativecommons.org/ns#" xmlns:dc="http://purl.org/dc/elements/1.1/" xmlns:rdf="http://www.w3.org/1999/02/22-rdf-syntax-ns#">
 <defs id="defs2">
  <filter id="filter2711" x="-.014634" y="-.066679" width="1.0293" height="1.1334" color-interpolation-filters="sRGB">
   <feGaussianBlur id="feGaussianBlur2713" stdDeviation="2.1035714"/>
  </filter>
  <filter id="filter2888" x="-.072" y="-.072" width="1.144" height="1.144" color-interpolation-filters="sRGB">
   <feGaussianBlur id="feGaussianBlur2890" stdDeviation="0.45000003"/>
  </filter>
  <filter id="filter2888-6" x="-.072" y="-.072" width="1.144" height="1.144" color-interpolation-filters="sRGB">
   <feGaussianBlur id="feGaussianBlur2890-4" stdDeviation="0.45000003"/>
  </filter>
  <filter id="filter2925" x="-.084" y="-.084" width="1.168" height="1.168" color-interpolation-filters="sRGB">
   <feGaussianBlur id="feGaussianBlur2927" stdDeviation="0.52500003"/>
  </filter>
  <filter id="filter2941" x="-.084" y="-.084" width="1.168" height="1.168" color-interpolation-filters="sRGB">
   <feGaussianBlur id="feGaussianBlur2943" stdDeviation="0.52500003"/>
  </filter>
  <filter id="filter3008" x="-.0066727" y="-.059515" width="1.0133" height="1.119" color-interpolation-filters="sRGB">
   <feGaussianBlur id="feGaussianBlur3010" stdDeviation="0.84547093"/>
  </filter>
  <filter id="filter3035" x="-.024139" y="-.070775" width="1.0483" height="1.1415" color-interpolation-filters="sRGB">
   <feGaussianBlur id="feGaussianBlur3037" stdDeviation="3.4497778"/>
  </filter>
 </defs>
 <metadata id="metadata5">
  <rdf:RDF>
   <cc:Work rdf:about="">
    <dc:format>image/svg+xml</dc:format>
    <dc:type rdf:resource="http://purl.org/dc/dcmitype/StillImage"/>
    <dc:title/>
   </cc:Work>
  </rdf:RDF>
 </metadata>
 <g id="layer1" transform="translate(0 -274.08)">
  <rect id="rect2566-2" transform="matrix(1.1125 0 0 1.1266 -15.322 -27.699)" x="22.057" y="291.71" width="342.99" height="116.98" fill-opacity=".42733" filter="url(#filter3035)"/>
  <rect id="rect2566" x="8.2948" y="293.72" width="384.92" height="131.38" fill="#31406b"/>
  <rect id="rect2568-2" transform="matrix(.9623 0 0 .96298 8.2948 26.34)" x="27.5" y="310.01" width="345" height="75.714" fill="none" filter="url(#filter2711)" stroke="#000" stroke-opacity=".36337" stroke-width="5.1941"/>
  <rect id="rect2568" x="34.758" y="322.95" width="331.99" height="72.911" fill="none" stroke="#fff" stroke-width="5"/>
  <g id="g3047" transform="matrix(1.0481 0 0 1.0514 -10.728 -17.936)">
   <g id="text2572-4" transform="matrix(.9623 0 0 .96298 8.2948 26.34)" fill-opacity=".35756" filter="url(#filter3008)" stroke-width=".71075" aria-label="CONCSSTRUCT">
    <path id="path3072" d="m74.654 363.42q-1.5518 1.0197-3.9459 1.9064-2.3498 0.84238-5.143 0.84238-4.9213 0-8.6898-2.1725-3.7242-2.1725-5.7637-5.8523-1.9951-3.6799-1.9951-8.1135 0-4.7439 2.0394-8.5125 2.0394-3.8129 5.6307-5.941 3.6355-2.1725 8.2021-2.1725 2.7045 0 5.0543 0.70937 2.3498 0.70938 4.2119 1.8621l-1.7291 4.0346q-3.6799-2.4828-7.4041-2.4828-3.1035 0-5.7637 1.6404-2.6158 1.6404-4.2119 4.4779-1.5518 2.7932-1.5518 6.1627 0 3.4582 1.4187 6.2514 1.4631 2.7932 4.1232 4.3892 2.7045 1.5518 6.207 1.5518 4.3006 0 7.4928-2.4385z"/>
    <path id="path3074" d="m77.485 349.81q0-4.3892 2.2168-8.1578t5.941-5.9853q3.7685-2.2611 8.2021-2.2611 4.3892 0 8.1578 2.2611 3.7686 2.2168 5.9853 5.9853 2.2611 3.7686 2.2611 8.1578 0 4.4336-2.2168 8.2021t-6.0297 5.9853q-3.7685 2.1725-8.1578 2.1725-4.4336 0-8.2021-2.1725-3.7685-2.1725-5.9853-5.8967-2.1725-3.7686-2.1725-8.2908zm4.4336 0.0443q0 3.2809 1.5961 6.074 1.5961 2.7932 4.3449 4.4336 2.7932 1.6404 6.074 1.6404 3.2809 0 5.9853-1.5961 2.7488-1.6404 4.3006-4.4336 1.5961-2.8375 1.5961-6.1627t-1.5961-6.1627q-1.5961-2.8375-4.3449-4.4779-2.7488-1.6404-6.0297-1.6404-3.2809 0-6.0297 1.6848-2.7488 1.6404-4.3449 4.4779-1.5518 2.8375-1.5518 6.1627z"/>
    <path id="path3076" d="m143.05 333.76v33.119h-0.13301l-23.542-23.897 0.0887 22.833h-4.3449v-33.03h0.22168l23.498 24.163-0.0887-23.188z"/>
    <path id="path3078" d="m173.97 363.11q-1.2414 1.0197-3.9459 2.0394-2.7045 1.0197-5.8967 1.0197-5.0986 0-8.8672-2.2168-3.7685-2.2168-5.7637-5.941-1.9951-3.7686-1.9951-8.2465 0-4.9213 1.9951-8.7785 1.9951-3.8572 5.5863-5.9853 3.5912-2.1725 8.2908-2.1725 2.9705 0 5.4976 0.79805 2.5272 0.79804 4.4336 1.9951l-2.5272 6.074q-3.5025-2.6602-7.1824-2.6602-2.4828 0-4.6553 1.3744-2.1725 1.3744-3.4582 3.7686-1.2857 2.3498-1.2857 5.2316 0 3.1478 1.1971 5.542 1.1971 2.3498 3.4139 3.6799 2.2168 1.3301 5.1873 1.3301 2.3941 0 4.3006-0.75371 1.9064-0.79805 3.0148-1.8621z"/>
    <path id="path3080" d="m195.47 341.07q-4.2562-2.3498-7.4041-2.3498-2.1281 0-3.3252 0.84238-1.1527 0.84238-1.1527 2.5272 0 1.5518 1.6848 2.7488 1.7291 1.1527 4.5666 2.2168 2.3055 0.84238 3.9459 1.9508 1.6404 1.0641 2.7045 2.9705 1.1084 1.9064 1.1084 4.8326 0 2.5272-1.3301 4.6996-1.2857 2.1281-3.8129 3.4139-2.5272 1.2414-6.0297 1.2414-2.9262 0-5.808-0.84238-2.8818-0.88672-5.3646-2.6602l2.8375-5.01q1.6848 1.2414 3.8572 2.0394 2.1725 0.79805 3.9016 0.79805 2.0394 0 3.5469-0.84238 1.5074-0.88672 1.5074-2.8375 0-2.5271-4.7439-4.3892-2.7932-1.1084-4.6553-2.1281-1.8621-1.0197-3.2365-2.9262-1.3301-1.9064-1.3301-4.7883 0-4.2119 2.7488-6.7834 2.7932-2.5715 7.4041-2.7932 3.6355 0 6.074 0.84238 2.4385 0.79804 4.7439 2.3055z"/>
    <path id="path3082" d="m218.99 341.07q-4.2562-2.3498-7.4041-2.3498-2.1281 0-3.3252 0.84238-1.1527 0.84238-1.1527 2.5272 0 1.5518 1.6848 2.7488 1.7291 1.1527 4.5666 2.2168 2.3055 0.84238 3.9459 1.9508 1.6404 1.0641 2.7045 2.9705 1.1084 1.9064 1.1084 4.8326 0 2.5272-1.3301 4.6996-1.2857 2.1281-3.8129 3.4139-2.5271 1.2414-6.0297 1.2414-2.9262 0-5.808-0.84238-2.8818-0.88672-5.3646-2.6602l2.8375-5.01q1.6848 1.2414 3.8572 2.0394 2.1724 0.79805 3.9016 0.79805 2.0394 0 3.5469-0.84238 1.5074-0.88672 1.5074-2.8375 0-2.5271-4.7439-4.3892-2.7932-1.1084-4.6553-2.1281-1.8621-1.0197-3.2365-2.9262-1.3301-1.9064-1.3301-4.7883 0-4.2119 2.7488-6.7834 2.7932-2.5715 7.4041-2.7932 3.6355 0 6.074 0.84238 2.4385 0.79804 4.7439 2.3055z"/>
    <path id="path3084" d="m244.41 333.76v4.1232h-8.6012v27.932h-4.3006v-27.932h-8.3795v-4.1232z"/>
    <path id="path3086" d="m266.56 365.81-7.5371-11.838q-0.35469 0.0443-1.0641 0.0443h-4.7439v11.793h-4.3006v-32.055h8.5568q3.2808 0 5.8523 1.1527t4.0346 3.4139q1.4631 2.2168 1.4631 5.3646 0 2.9705-1.3301 5.4533-1.2857 2.4828-3.9902 3.7686l8.0691 12.902zm-8.6898-15.961q3.4582 0 4.9656-1.8178 1.5518-1.8178 1.5518-4.1676 0-1.4188-0.66504-2.7932-0.6207-1.3744-2.0394-2.2611-1.3744-0.93105-3.5025-0.93105h-4.9656v11.971z"/>
    <path id="path3088" d="m279.71 354.46q0 2.1281 1.0197 3.8572 1.0197 1.6848 2.7488 2.7045 1.7734 0.97539 3.9016 0.97539 2.2168 0 3.9902-0.97539 1.8178-0.97539 2.8375-2.7045 1.0197-1.7291 1.0197-3.8572v-20.705h4.2119v20.838q0 3.4139-1.5961 6.074-1.5961 2.6158-4.3449 4.0789-2.7488 1.4188-6.1183 1.4188-3.3252 0-6.074-1.4188-2.7488-1.4631-4.3449-4.0789-1.5518-2.6602-1.5518-6.074v-20.838h4.3006z"/>
    <path id="path3090" d="m329.45 363.42q-1.5518 1.0197-3.9459 1.9064-2.3498 0.84238-5.143 0.84238-4.9213 0-8.6898-2.1725-3.7242-2.1725-5.7637-5.8523-1.9951-3.6799-1.9951-8.1135 0-4.7439 2.0394-8.5125 2.0394-3.8129 5.6306-5.941 3.6355-2.1725 8.2021-2.1725 2.7045 0 5.0543 0.70937 2.3498 0.70938 4.2119 1.8621l-1.7291 4.0346q-3.6799-2.4828-7.4041-2.4828-3.1035 0-5.7637 1.6404-2.6158 1.6404-4.2119 4.4779-1.5518 2.7932-1.5518 6.1627 0 3.4582 1.4188 6.2514 1.4631 2.7932 4.1232 4.3892 2.7045 1.5518 6.207 1.5518 4.3006 0 7.4928-2.4385z"/>
    <path id="path3092" d="m353.21 333.76v4.1232h-8.6012v27.932h-4.3006v-27.932h-8.3795v-4.1232z"/>
   </g>
   <g id="text2572" transform="scale(.99965 1.0004)" stroke-width=".68419" aria-label="CONCSSTRUCT">
    <g fill="#fff">
     <path id="path3049" d="m80.191 372.35q-1.4938 0.98163-3.7985 1.8352-2.262 0.81091-4.9508 0.81091-4.7374 0-8.3652-2.0913-3.5851-2.0913-5.5483-5.6337-1.9206-3.5424-1.9206-7.8103 0-4.5667 1.9633-8.1944 1.9633-3.6704 5.4203-5.719 3.4997-2.0913 7.8957-2.0913 2.6034 0 4.8655 0.68287 2.262 0.68287 4.0545 1.7925l-1.6645 3.8838q-3.5424-2.39-7.1275-2.39-2.9876 0-5.5483 1.5791-2.5181 1.5791-4.0545 4.3106-1.4938 2.6888-1.4938 5.9324 0 3.329 1.3657 6.0178 1.4084 2.6888 3.9692 4.2253 2.6034 1.4938 5.9751 1.4938 4.1399 0 7.2128-2.3474z"/>
     <path id="path3051" d="m82.916 359.25q0-4.2253 2.134-7.853 2.134-3.6278 5.719-5.7617 3.6278-2.1766 7.8957-2.1766 4.2253 0 7.853 2.1766 3.6278 2.134 5.7617 5.7617 2.1766 3.6278 2.1766 7.853 0 4.268-2.134 7.8957t-5.8044 5.7617q-3.6278 2.0913-7.853 2.0913-4.2679 0-7.8957-2.0913-3.6278-2.0913-5.7617-5.6764-2.0913-3.6278-2.0913-7.9811zm4.2679 0.0427q0 3.1583 1.5365 5.8471 1.5365 2.6888 4.1826 4.2679 2.6888 1.5791 5.8471 1.5791 3.1583 0 5.7617-1.5365 2.6461-1.5791 4.1399-4.2679 1.5365-2.7315 1.5365-5.9324t-1.5365-5.9324-4.1826-4.3106q-2.6461-1.5791-5.8044-1.5791-3.1583 0-5.8044 1.6218-2.6461 1.5791-4.1826 4.3106-1.4938 2.7315-1.4938 5.9324z"/>
     <path id="path3053" d="m146.04 343.8v31.882h-0.12804l-22.663-23.004 0.0854 21.98h-4.1826v-31.796h0.2134l22.62 23.26-0.0854-22.321z"/>
    </g>
    <path id="path3055" d="m175.8 372.05q-1.195 0.98162-3.7985 1.9632-2.6034 0.98163-5.6764 0.98163-4.9081 0-8.5359-2.134-3.6278-2.134-5.5483-5.719-1.9206-3.6278-1.9206-7.9384 0-4.7374 1.9206-8.4505 1.9206-3.7131 5.3776-5.7617 3.457-2.0913 7.9811-2.0913 2.8595 0 5.2922 0.76823t4.2679 1.9206l-2.4327 5.8471q-3.3717-2.5608-6.9141-2.5608-2.39 0-4.4813 1.3231-2.0913 1.3231-3.329 3.6278-1.2377 2.262-1.2377 5.0362 0 3.0302 1.1524 5.3349 1.1523 2.262 3.2863 3.5424 2.134 1.2804 4.9935 1.2804 2.3047 0 4.1399-0.72556 1.8352-0.76823 2.9022-1.7925z" fill="#00dffb"/>
    <path id="path3057" d="m196.49 350.84q-4.0972-2.262-7.1275-2.262-2.0486 0-3.201 0.81091-1.1097 0.81091-1.1097 2.4327 0 1.4938 1.6218 2.6461 1.6645 1.1097 4.396 2.134 2.2193 0.81091 3.7985 1.8779 1.5791 1.0243 2.6034 2.8595 1.067 1.8352 1.067 4.652 0 2.4327-1.2804 4.524-1.2377 2.0486-3.6704 3.2863-2.4327 1.195-5.8044 1.195-2.8168 0-5.591-0.81091-2.7742-0.85359-5.1642-2.5608l2.7315-4.8228q1.6218 1.195 3.7131 1.9633 2.0913 0.76823 3.7558 0.76823 1.9632 0 3.4144-0.81091 1.4511-0.85359 1.4511-2.7315 0-2.4327-4.5667-4.2253-2.6888-1.067-4.4813-2.0486-1.7925-0.98163-3.1156-2.8168-1.2804-1.8352-1.2804-4.6094 0-4.0545 2.6461-6.53 2.6888-2.4754 7.1275-2.6888 3.4997 0 5.8471 0.81091 2.3474 0.76823 4.5667 2.2193z" fill="#47eaff"/>
    <path id="path3059" d="m219.13 350.84q-4.0972-2.262-7.1275-2.262-2.0486 0-3.201 0.81091-1.1097 0.81091-1.1097 2.4327 0 1.4938 1.6218 2.6461 1.6645 1.1097 4.396 2.134 2.2193 0.81091 3.7985 1.8779 1.5791 1.0243 2.6034 2.8595 1.067 1.8352 1.067 4.652 0 2.4327-1.2804 4.524-1.2377 2.0486-3.6704 3.2863-2.4327 1.195-5.8044 1.195-2.8168 0-5.591-0.81091-2.7742-0.85359-5.1642-2.5608l2.7315-4.8228q1.6218 1.195 3.7131 1.9633 2.0913 0.76823 3.7558 0.76823 1.9632 0 3.4144-0.81091 1.4511-0.85359 1.4511-2.7315 0-2.4327-4.5667-4.2253-2.6888-1.067-4.4813-2.0486-1.7925-0.98163-3.1156-2.8168-1.2804-1.8352-1.2804-4.6094 0-4.0545 2.6461-6.53 2.6888-2.4754 7.1275-2.6888 3.4997 0 5.8471 0.81091 2.3474 0.76823 4.5667 2.2193z" fill="#8cf2ff"/>
    <g fill="#fff">
     <path id="path3061" d="m243.61 343.8v3.9692h-8.2798v26.888h-4.1399v-26.888h-8.0664v-3.9692z"/>
     <path id="path3063" d="m264.93 374.66-7.2555-11.395q-0.34144 0.0427-1.0243 0.0427h-4.5667v11.353h-4.1399v-30.857h8.2371q3.1583 0 5.6337 1.1097 2.4754 1.1097 3.8838 3.2863 1.4084 2.134 1.4084 5.1642 0 2.8595-1.2804 5.2496-1.2377 2.39-3.8412 3.6278l7.7677 12.42zm-8.3652-15.365q3.329 0 4.7801-1.7499 1.4938-1.7498 1.4938-4.0119 0-1.3657-0.64019-2.6888-0.59751-1.3231-1.9632-2.1766-1.3231-0.89627-3.3717-0.89627h-4.7801v11.523z"/>
     <path id="path3065" d="m277.59 363.73q0 2.0486 0.98163 3.7131 0.98163 1.6218 2.6461 2.6034 1.7072 0.93895 3.7558 0.93895 2.134 0 3.8412-0.93895 1.7499-0.93895 2.7315-2.6034 0.98163-1.6645 0.98163-3.7131v-19.931h4.0545v20.059q0 3.2863-1.5365 5.8471-1.5365 2.5181-4.1826 3.9265-2.6461 1.3657-5.8898 1.3657-3.201 0-5.8471-1.3657-2.6461-1.4084-4.1826-3.9265-1.4938-2.5608-1.4938-5.8471v-20.059h4.1399z"/>
     <path id="path3067" d="m325.47 372.35q-1.4938 0.98163-3.7985 1.8352-2.262 0.81091-4.9508 0.81091-4.7374 0-8.3652-2.0913-3.5851-2.0913-5.5483-5.6337-1.9206-3.5424-1.9206-7.8103 0-4.5667 1.9632-8.1944 1.9633-3.6704 5.4203-5.719 3.4997-2.0913 7.8957-2.0913 2.6034 0 4.8655 0.68287 2.262 0.68287 4.0545 1.7925l-1.6645 3.8838q-3.5424-2.39-7.1275-2.39-2.9876 0-5.5483 1.5791-2.5181 1.5791-4.0546 4.3106-1.4938 2.6888-1.4938 5.9324 0 3.329 1.3657 6.0178 1.4084 2.6888 3.9692 4.2253 2.6034 1.4938 5.9751 1.4938 4.1399 0 7.2128-2.3474z"/>
     <path id="path3069" d="m348.34 343.8v3.9692h-8.2798v26.888h-4.1399v-26.888h-8.0664v-3.9692z"/>
    </g>
   </g>
  </g>
  <circle id="path2765-0" transform="matrix(.9623 0 0 .96298 10.295 28.34)" cx="13.5" cy="293.08" r="7.5" fill-opacity=".38372" filter="url(#filter2941)"/>
  <path id="path2765" d="m22.324 301.49a7.2173 7.2223 0 0 0-6.255 7.149 7.2173 7.2223 0 0 0 6.255 7.149zm1.9246 0v14.298a7.2173 7.2223 0 0 0 6.255-7.149 7.2173 7.2223 0 0 0-6.255-7.149z" fill="#fff"/>
  <circle id="path2765-0-0" transform="matrix(.9623 0 0 .96298 10.295 24.34)" cx="13.5" cy="402.66" r="7.5" fill-opacity=".38372" filter="url(#filter2925)"/>
  <path id="path2765-6" d="m22.324 403.02a7.2173 7.2223 0 0 0-6.255 7.149 7.2173 7.2223 0 0 0 6.255 7.149zm1.9246 0v14.298a7.2173 7.2223 0 0 0 6.255-7.149 7.2173 7.2223 0 0 0-6.255-7.149z" fill="#fff"/>
  <circle id="path2765-0-9" transform="matrix(.9623 0 0 .96298 6.2948 28.34)" cx="386.5" cy="293.08" r="7.5" fill-opacity=".38372" filter="url(#filter2888)"/>
  <path id="path2765-8" d="m377.26 301.49a7.2173 7.2223 0 0 0-6.255 7.149 7.2173 7.2223 0 0 0 6.255 7.149zm1.9246 0v14.298a7.2173 7.2223 0 0 0 6.255-7.149 7.2173 7.2223 0 0 0-6.255-7.149z" fill="#fff"/>
  <circle id="path2765-0-9-5" transform="matrix(.9623 0 0 .96298 6.2948 24.34)" cx="386.5" cy="402.66" r="7.5" fill-opacity=".38372" filter="url(#filter2888-6)"/>
  <path id="path2765-2" d="m377.26 403.02a7.2173 7.2223 0 0 0-6.255 7.149 7.2173 7.2223 0 0 0 6.255 7.149zm1.9246 0v14.298a7.2173 7.2223 0 0 0 6.255-7.149 7.2173 7.2223 0 0 0-6.255-7.149z" fill="#fff"/>
 </g>
</svg>
