<?xml version="1.0" encoding="UTF-8"?>
<!-- Created with Inkscape (http://www.inkscape.org/) -->
<svg id="svg8" width="500" height="500" version="1.1" viewBox="0 0 500 500" xmlns="http://www.w3.org/2000/svg" xmlns:cc="http://creativecommons.org/ns#" xmlns:dc="http://purl.org/dc/elements/1.1/" xmlns:rdf="http://www.w3.org/1999/02/22-rdf-syntax-ns#">
 <defs id="defs2">
  <filter id="filter4346" x="-.072" y="-.072" width="1.144" height="1.144" color-interpolation-filters="sRGB">
   <feGaussianBlur id="feGaussianBlur4348" stdDeviation="1.42875"/>
  </filter>
 </defs>
 <metadata id="metadata5">
  <rdf:RDF>
   <cc:Work rdf:about="">
    <dc:format>image/svg+xml</dc:format>
    <dc:type rdf:resource="http://purl.org/dc/dcmitype/StillImage"/>
    <dc:title/>
   </cc:Work>
  </rdf:RDF>
 </metadata>
 <g id="layer1" transform="translate(0 -164.71)">
  <g id="g4855" transform="matrix(.93458 0 0 .93458 -255.86 -1119.1)">
   <rect id="rect2062-2" transform="matrix(9.3504 0 0 9.3504 318.67 -927.58)" x="1.2726e-6" y="252.28" width="47.625" height="47.625" rx="3.7207" ry="3.7207" fill="#363636" fill-opacity=".48276" filter="url(#filter4346)"/>
   <g id="g4849" transform="translate(12.769 109.86)">
    <rect id="rect2062" x="303.6" y="1271.1" width="445.31" height="445.31" rx="34.79" ry="34.79" fill="#fff"/>
    <path id="rect4129-8" d="m324.97 1263.8c-18.796 0-33.918 15.121-33.918 33.918v407.16c0 18.796 15.122 33.918 33.918 33.918h407.16c18.796 0 33.918-15.122 33.918-33.918v-407.16c0-18.796-15.122-33.918-33.918-33.918zm201.8 68.504 32.137 0.075-0.29641 86.614 40.597-41.934 38 0.1449-44.234 42.824 48.762 74.144-38.891-0.145-31.914-52.398-12.469 11.949-0.14587 40.301-32.062-0.1449 0.51932-161.43zm73.18 0.2253 132.26 0.5199-0.0748 29.836-48.391-0.2216-0.51988 131.66-35.477-0.145 0.44508-131.59-48.316-0.2235 0.0748-29.836zm-137.75 0.2216c7.6881 0.028 15.029 1.3974 21.969 4.0821 6.9385 2.6847 13.033 7.1298 18.258 13.359 5.2252 6.2298 9.3253 14.502 12.321 24.789 2.9945 10.287 4.4331 22.996 4.3786 38.074-0.057 15.526-1.6066 28.405-4.6755 38.742-3.0699 10.337-7.1987 18.673-12.469 25.012-5.271 6.3383-11.448 10.871-18.406 13.508-6.9588 2.6369-14.281 3.8871-21.969 3.8597-7.6888-0.028-14.954-1.3212-21.821-4.0081-6.8662-2.6867-12.885-7.2799-18.035-13.656-5.15-6.3759-9.1771-14.727-12.172-25.086-2.9947-10.36-4.5093-23.291-4.4531-38.817 0.0542-15.079 1.6808-27.735 4.75-38 3.0694-10.265 7.1992-18.523 12.395-24.715 5.1958-6.1921 11.224-10.576 18.109-13.211 6.8862-2.635 14.132-3.9612 21.821-3.9336zm-89.879 2.7461 25.086 0.1459-0.51933 155.19-31.543-0.075 0.3713-100.71-39.039-0.1496 0.0739-23.676c5.4679 0.1674 10.779-0.244 15.883-1.1875 5.104-0.9423 9.7301-2.6231 13.879-5.0469 4.1486-2.4235 7.6391-5.6649 10.391-9.6485 2.7505-3.9831 4.512-8.9316 5.4177-14.844zm89.805 23.23c-4.1421-0.028-7.7252 0.9117-10.688 2.8203-2.9623 1.9093-5.3376 4.3965-7.1992 7.496-1.8612 3.0998-3.3317 6.6264-4.3789 10.539-1.0472 3.9124-1.7676 7.8833-2.2266 11.875-0.45864 3.9917-0.72811 7.883-0.81666 11.652-0.0888 3.7697-0.13605 6.9869-0.14596 9.6487-0.0243 4.4348 0.0965 9.7469 0.3713 16.031 0.27238 6.2843 1.141 12.337 2.6716 18.184 1.5309 5.8468 4.0348 10.84 7.4216 14.992 3.3876 4.1522 8.2638 6.2856 14.621 6.3087 6.3578 0.028 11.28-2.0334 14.844-6.1601 3.564-4.1268 6.1453-9.0831 7.7185-14.918 1.5739-5.8353 2.5019-11.902 2.8206-18.184 0.3181-6.2818 0.50371-11.67 0.51951-16.106 0-2.6618-0.0243-5.8784-0.0739-9.6481-0.0617-3.7702-0.31417-7.6577-0.81619-11.653-0.50249-3.9948-1.2803-7.9551-2.2268-11.875-0.94654-3.9197-2.3198-7.4251-4.2302-10.539-1.9109-3.1133-4.3972-5.6394-7.3476-7.5702-2.9509-1.9303-6.55-2.8791-10.836-2.8945zm111.11 159.35c6.3259 2.9158 5.7233 10.942 4.1562 16.551-1.9338 13.36-16.834 21.224-29.391 18.629-22.588-7.6889-44.406-18.554-68.281-21.894-16.761-1.6431-34.457-2.7973-50.395 3.7112-6.7487 2.5009-12.821 6.9273-16.18 13.433-3.8047 4.2908-2.9846 13.096-10.094 13.36-11.043-0.548-5.3104-12.874-0.59375-17.59 10.253-13.559 26.583-21.239 43.196-23.305 22.805-3.1673 46.162 0.863 67.761 8.3125 12.534 4.3295 24.289 11.272 37.406 13.73 6.6297 1.2811 15.702-2.005 15.512-9.9454 0.27023-5.5071-0.45723-14.196 6.9026-14.992zm59.301 14.102c6.389-0.2759 12.576 3.3546 17.293 7.7927 9.3108 7.4766 38.233 24.098 47.648 31.469 12.031 8.6765 5.7252 6.5558 16.848 16.402 6.4991 5.9501 14.227 10.6 19.742 17.516 5.513 8.2424-0.77234 18.212-7.4963 23.453-8.7081 6.8466-19.688 12.751-31.097 11.504-7.8494-3.3806-9.7368-15.857-20.633-15.289-13.102 0.028-26.771-1.0221-38.594-7.2736-9.2781-4.6006-19.621-4.1419-29.539-4.6757-7.3093-2.1871-23.252-1.2366-21.82-12.172 3.633-7.937 13.619-12.181 21.969-9.797 3.5358 1.2605 41.715 3.6473 33.176 1.3359-3.3163-2.3295-14.421-4.4288-25.16-6.9023-10.739-2.4735-21.11-5.3491-23.082-9.203-1.7056-3.9682-2.3416-7.93-6.0113-2.8947-7.1351 5.9667-13.001 13.296-19.371 19.965-3.6194 2.7484-9.2639 4.372-12.988 0.8911-2.3013-9.4889 5.9166-17.318 10.836-24.418 7.6252-7.7492 13.434-18.08 23.602-22.785 12.523-5.1033 26.042-7.3584 38.297-13.211 2.1148-1.083 4.2528-1.615 6.3826-1.7071zm-270.74 5.6464c18.276 0 33.028 14.751 33.027 33.027 2.5e-4 18.276-14.751 33.176-33.027 33.176-18.276 0-33.176-14.899-33.176-33.176 4.9e-4 -18.276 14.9-33.027 33.176-33.027zm94.469 21.072c8.2286-0.172 14.626 0.4208 16.996 2.5972 3.4448 3.1639 6.798 6.1481 10.094 9.055 1.0398-0.2534 2.1976-0.3703 3.4141-0.3712h22.785c4.6117 0 8.312 2.0063 8.3125 4.527 0 2.5208-3.7006 4.5267-8.3125 4.5274h-16.179c4.2268 3.5659 8.3508 6.9464 12.32 10.094 0.38543-0.028 0.78768-0.075 1.1875-0.075h22.86c4.6117 0 8.312 2.0812 8.3125 4.6019 0 2.5202-3.7006 4.5267-8.3125 4.527h-12.246c4.894 3.6219 9.5557 6.9442 14.027 9.9455 0.95965-0.2076 2.0178-0.3703 3.1174-0.3712h22.785c4.6114 0 8.3854 2.0807 8.3866 4.6013-1.9e-4 2.5212-3.7752 4.5268-8.3866 4.5275h-12.023c4.661 2.7756 9.069 5.2161 13.211 7.3475 0.97824-0.2197 2.0652-0.3702 3.1914-0.3712h22.785c4.611 0 8.3857 2.0063 8.3863 4.527 0 2.5207-3.7753 4.601-8.3863 4.6016h-6.3086c20.715 7.7918 32.193 7.2771 37.406 10.836 8.1077 5.5365-3.2186 25.702-19.965 25.531-22.215-0.2282 16.693-0.075-36.961 0.1496-53.654 0.2281-199.87 0.5199-199.87 0.5199s-15.776 1.89-25.383-14.547c-7.4526-12.753-6.3761-36.805 0-44.606 3.7743-4.6163 11.021 3.0319 30.35 2.0664 13.407-0.6695 25.086-4.0472 33.783-21.945 9.622-19.803 7.3432-28.231 19.793-30.63 13.008 0 25.116-1.3831 38.832-1.6665z" fill="#00695c"/>
   </g>
  </g>
 </g>
</svg>
