<?xml version="1.0" standalone="no"?>
<!DOCTYPE svg PUBLIC "-//W3C//DTD SVG 20010904//EN"
 "http://www.w3.org/TR/2001/REC-SVG-20010904/DTD/svg10.dtd">
<svg version="1.0" xmlns="http://www.w3.org/2000/svg"
 width="700.000000pt" height="700.000000pt" viewBox="0 0 700.000000 700.000000"
 preserveAspectRatio="xMidYMid meet">
<metadata>
Created by potrace 1.11, written by Peter Selinger 2001-2013
</metadata>
<g transform="translate(0.000000,700.000000) scale(0.100000,-0.100000)"
fill="#000000" stroke="none">
<path d="M753 6985 c-232 -42 -446 -175 -579 -361 -59 -82 -119 -212 -146
-314 l-23 -85 0 -2735 0 -2735 23 -78 c94 -324 325 -555 649 -649 l78 -23
2745 0 2745 0 78 23 c324 94 555 325 649 649 l23 78 0 2735 0 2735 -23 85
c-86 327 -326 569 -657 662 l-80 23 -2705 2 c-2188 1 -2719 -1 -2777 -12z
m2339 -2535 c826 -759 1505 -1380 1511 -1380 6 0 7 90 3 238 -3 130 -9 713
-12 1295 l-6 1057 426 0 426 0 0 -2241 c0 -2016 -2 -2240 -15 -2237 -9 2 -689
611 -1512 1353 -823 743 -1500 1352 -1505 1353 -9 4 -3 -2047 7 -2370 l6 -168
-431 0 -430 0 0 2240 c0 1999 2 2240 15 2240 9 0 691 -621 1517 -1380z"/>
</g>
</svg>
